<svg height="64" viewBox="0 0 64 64" width="64" xmlns="http://www.w3.org/2000/svg"><g fill="#f57c00"><path d="m22 60a1 1 0 0 1 -.5-.13l-9-5a1 1 0 0 1 0-1.74l9-5a1 1 0 0 1 1.43.49 14.29 14.29 0 0 1 1.07 5.38 14.4 14.4 0 0 1 -1.06 5.38 1 1 0 0 1 -.94.62zm-7-6 6.4 3.56a12.17 12.17 0 0 0 .6-3.56 12 12 0 0 0 -.54-3.56z"/><path d="m59 60h-37a1 1 0 0 1 -.83-.44 1 1 0 0 1 -.1-.94 12.33 12.33 0 0 0 .93-4.62 12.13 12.13 0 0 0 -.92-4.62 1 1 0 0 1 .1-.94 1 1 0 0 1 .82-.44h37a1 1 0 0 1 1 1v10a1 1 0 0 1 -1 1zm-35.58-2h34.58v-8h-34.58a13.87 13.87 0 0 1 .58 4 14.27 14.27 0 0 1 -.58 4z"/><path d="m47 56h-23a1 1 0 0 1 0-2h23a1 1 0 0 1 0 2z"/><path d="m52 59a1 1 0 0 1 -1-1v-8a1 1 0 0 1 2 0v8a1 1 0 0 1 -1 1z"/></g><path d="m16.27 48.61a1 1 0 0 1 -.91-.59l-10.8-24.19a5 5 0 0 1 2.52-6.6l20.17-9a1 1 0 0 1 .82 1.77l-20.17 9a3 3 0 0 0 -1.52 4l10.8 24.2a1 1 0 0 1 -.5 1.32 1 1 0 0 1 -.41.09z" fill="#999"/><path d="m16.74 22.68a1 1 0 0 1 -.92-.6 1 1 0 0 1 .51-1.32l8.22-3.67a1 1 0 1 1 .81 1.83l-8.22 3.67a1 1 0 0 1 -.4.09z" fill="#666"/><path d="m16.44 29.38a1 1 0 0 1 -.44-1.91l6.78-3a1 1 0 0 1 .82 1.82l-6.78 3a1 1 0 0 1 -.38.09z" fill="#666"/><path d="m18.89 34.85a1 1 0 0 1 -.41-1.91l2.29-1a1 1 0 0 1 .82 1.82l-2.29 1a1 1 0 0 1 -.41.09z" fill="#666"/><path d="m51 46a.75.75 0 0 1 -.26 0 1 1 0 0 1 -.7-1.22l7.86-28.67a3 3 0 0 0 -.3-2.28 2.9 2.9 0 0 0 -1.81-1.4l-23.14-6.35a3 3 0 0 0 -3.65 2.12l-8.23 29.89a3 3 0 0 0 .29 2.28 3 3 0 0 0 1.81 1.41l8.25 2.22a1 1 0 0 1 -.52 2l-8.25-2.3a5 5 0 0 1 -3-2.34 4.93 4.93 0 0 1 -.47-3.79l8.12-29.9a5 5 0 0 1 6.14-3.51l23.17 6.34a5 5 0 0 1 3.51 6.13l-7.82 28.63a1 1 0 0 1 -1 .74z" fill="#999"/><path d="m47.46 17.36a1.24 1.24 0 0 1 -.27 0l-8.68-2.36a1 1 0 0 1 .49-2l8.68 2.38a1 1 0 0 1 -.26 2z" fill="#666"/><path d="m48.77 23.94a1.24 1.24 0 0 1 -.27 0l-14.5-3.94a1 1 0 1 1 .56-2l14.44 4a1 1 0 0 1 -.26 2z" fill="#666"/><path d="m47.18 29.73a.78.78 0 0 1 -.26 0l-14.47-4a1 1 0 1 1 .55-1.92l14.47 4a1 1 0 0 1 .7 1.22 1 1 0 0 1 -.99.7z" fill="#666"/><path d="m45.6 35.52a.84.84 0 0 1 -.27 0l-14.47-4a1 1 0 1 1 .53-1.93l14.47 4a1 1 0 0 1 .7 1.23 1 1 0 0 1 -.96.7z" fill="#666"/></svg>